<?xml version="1.0" encoding="utf-8"?>
<!-- Generator: Adobe Illustrator 16.0.0, SVG Export Plug-In . SVG Version: 6.00 Build 0)  -->
<!DOCTYPE svg PUBLIC "-//W3C//DTD SVG 1.1//EN" "http://www.w3.org/Graphics/SVG/1.1/DTD/svg11.dtd">
<svg version="1.1" id="图层_1" xmlns="http://www.w3.org/2000/svg" xmlns:xlink="http://www.w3.org/1999/xlink" x="0px" y="0px"
	 width="189.231px" height="521.539px" viewBox="0 0 189.231 521.539" enable-background="new 0 0 189.231 521.539"
	 xml:space="preserve">
<g id="图层_1">
	<g>
		<path fill="none" stroke="#000000" stroke-miterlimit="10" d="M161.82,486.768c0.344,16.054-13.758,20.296-24.313,24.147
			c-3.862,1.46-8.227,2.844-12.953,3.965c-18.81,5.233-43.809,3.136-61.946-3.905c-18.481-6.44-30.102-17.825-30.086-17.316
			c-1.484-1.224-2.799-4.148-3.741-7.815c-1.913-7.887-1.055-14.332-1.058-20.55c3.108-37.93,20.848-74.643,10.644-121.128
			c-5.6-26.164-12.372-49.811-12.803-72.977c-0.061-3.275-0.087-6.542-0.067-9.8c0.117-16.311,1.322-32.361,5.677-48.994
			c14.424-55.37,1.592-104.235-3.907-146.399c0-2.681,0-4.104,0-4.104c0.001-8.553,2.287-17.713,5.255-20.193
			c35.438-29.264,85.508-31.943,123.626-8.04c3.193,2.026,5.681,11.101,5.683,20.002c0,0,0,5.508,0,15.276
			c0,2.441,0.007,5.159,0.131,8.284c5.521,47.702,19.591,91.409-0.84,128.355c-7.456,16.112,2.846,37.222,5.082,55.276
			c0.519,3.17,1.055,6.317,1.595,9.44c2.158,12.505,4.344,24.577,5.683,36.662c0.832,10.158,1.677,20.035-0.843,30.041
			c-12.095,49.128-13.51,100.169-10.847,146.84C161.812,485.743,161.82,486.768,161.82,486.768z"/>
	</g>
</g>
</svg>
